<svg width="32" height="32" viewBox="0 0 32 32" fill="none" xmlns="http://www.w3.org/2000/svg">
    <path d="M0 10C0 4.47715 4.47715 0 10 0H22C27.5228 0 32 4.47715 32 10V22C32 27.5228 27.5228 32 22 32H10C4.47715 32 0 27.5228 0 22V10Z" fill="url(#paint0_linear_12460_23564)" />
    <path d="M23.4707 17.3125H16.5273L21.1562 21.9707C21.332 22.1465 21.625 22.1465 21.8008 21.9707C22.9434 20.916 23.7344 19.4805 23.9395 17.8398C23.998 17.5762 23.7637 17.3125 23.4707 17.3125ZM23.002 15.4375C22.7676 11.9219 19.9844 9.13867 16.4688 8.9043C16.2051 8.875 16 9.10938 16 9.37305V15.9062H22.5332C22.7969 15.9062 23.0312 15.7012 23.002 15.4375ZM14.5938 17.3125V10.3691C14.5938 10.1055 14.3301 9.87109 14.0664 9.90039C10.5508 10.3984 7.88477 13.4453 8.03125 17.1074C8.14844 20.8574 11.3711 23.9336 15.1504 23.875C16.6152 23.875 17.9922 23.4062 19.1055 22.5859C19.3398 22.4395 19.3398 22.0879 19.1348 21.8828L14.5938 17.3125Z" fill="white" />
    <defs>
        <linearGradient id="paint0_linear_12460_23564" x1="0" y1="16" x2="32" y2="16" gradientUnits="userSpaceOnUse">
            <stop stop-color="#4086FF" />
            <stop offset="1" stop-color="#2BCDFF" />
        </linearGradient>
    </defs>
    
</svg>
    