<svg xmlns="http://www.w3.org/2000/svg" width="20" height="14" viewBox="0 0 20 14" fill="none">
    <path d="M3.4375 6.4375C4.46289 6.4375 5.3125 5.61719 5.3125 4.5625C5.3125 3.53711 4.46289 2.6875 3.4375 2.6875C2.38281 2.6875 1.5625 3.53711 1.5625 4.5625C1.5625 5.61719 2.38281 6.4375 3.4375 6.4375ZM16.5625 6.4375C17.5879 6.4375 18.4375 5.61719 18.4375 4.5625C18.4375 3.53711 17.5879 2.6875 16.5625 2.6875C15.5078 2.6875 14.6875 3.53711 14.6875 4.5625C14.6875 5.61719 15.5078 6.4375 16.5625 6.4375ZM17.5 7.375H15.625C15.0977 7.375 14.6289 7.60938 14.2773 7.93164C15.4785 8.57617 16.2988 9.74805 16.5039 11.125H18.4375C18.9355 11.125 19.375 10.7148 19.375 10.1875V9.25C19.375 8.22461 18.5254 7.375 17.5 7.375ZM10 7.375C11.7871 7.375 13.2812 5.91016 13.2812 4.09375C13.2812 2.30664 11.7871 0.8125 10 0.8125C8.18359 0.8125 6.71875 2.30664 6.71875 4.09375C6.71875 5.91016 8.18359 7.375 10 7.375ZM12.2266 8.3125H11.9922C11.377 8.60547 10.7031 8.78125 10 8.78125C9.26758 8.78125 8.59375 8.60547 7.97852 8.3125H7.74414C5.86914 8.3125 4.375 9.83594 4.375 11.7109V12.5312C4.375 13.3223 4.99023 13.9375 5.78125 13.9375H14.2188C14.9805 13.9375 15.625 13.3223 15.625 12.5312V11.7109C15.625 9.83594 14.1016 8.3125 12.2266 8.3125ZM5.69336 7.93164C5.3418 7.60938 4.87305 7.375 4.375 7.375H2.5C1.44531 7.375 0.625 8.22461 0.625 9.25V10.1875C0.625 10.7148 1.03516 11.125 1.5625 11.125H3.4668C3.67188 9.74805 4.49219 8.57617 5.69336 7.93164Z" fill="white"/>
</svg>